<svg width="40" height="40" viewBox="0 0 40 40" fill="none" xmlns="http://www.w3.org/2000/svg">
<path d="M13.409 11.976C13.409 11.7484 13.409 11.6011 13.409 11.4538C13.4224 10.1151 14.1721 9.32519 15.5242 9.3118C18.5097 9.29841 21.5086 9.29841 24.494 9.3118C25.8462 9.32519 26.5959 10.1151 26.6093 11.4538C26.6093 11.6011 26.6093 11.7618 26.6093 11.9893C27.9079 11.9893 29.1797 11.9893 30.4516 11.9893C31.7636 11.9893 32.0581 12.2973 31.9912 13.6227C31.7636 19.1384 28.4836 23.0476 22.8473 24.5471C20.9597 25.0424 20.9597 25.0424 20.9597 26.997C20.9597 27.5459 20.9597 28.0948 20.9597 28.724C21.8031 28.724 22.5796 28.724 23.3561 28.724C23.6506 28.724 23.9317 28.7106 24.2263 28.724C24.8823 28.7642 25.2839 29.1391 25.2973 29.688C25.3107 30.2368 24.8957 30.6251 24.2531 30.692C24.1593 30.7054 24.079 30.692 23.9853 30.692C21.3345 30.692 18.6704 30.692 16.0196 30.692C15.9125 30.692 15.792 30.692 15.6849 30.6786C15.0824 30.5983 14.7076 30.2101 14.7076 29.688C14.721 29.1658 15.1092 28.7508 15.7117 28.724C16.5551 28.6839 17.4119 28.7106 18.2553 28.7106C18.4963 28.7106 18.7373 28.7106 19.0452 28.7106C19.0452 27.5459 19.0854 26.4615 19.0051 25.3771C18.9917 25.1629 18.5499 24.8817 18.2553 24.8148C16.4882 24.3998 14.7879 23.8375 13.2349 22.8736C9.60686 20.6111 8.05387 17.2507 8.00032 13.0738C7.98694 12.324 8.38857 11.9893 9.21861 11.976C10.3833 11.9626 11.5347 11.976 12.6994 11.976C12.9404 11.976 13.1546 11.976 13.409 11.976ZM15.2966 11.32C15.377 12.3508 15.4439 13.3147 15.5376 14.2653C15.792 16.6751 16.2606 19.0313 17.519 21.1332C17.9474 21.8561 18.6168 22.4586 19.246 23.0476C19.7012 23.476 20.3037 23.476 20.7722 23.0476C21.3613 22.5121 22.0039 21.9766 22.4055 21.3072C24.2397 18.2414 24.5208 14.8142 24.7082 11.3066C21.5487 11.32 18.4695 11.32 15.2966 11.32ZM9.9951 13.9841C10.0888 17.4515 13.1814 21.7089 15.6715 21.8293C14.3997 19.366 13.8775 16.7018 13.5696 13.9841C12.3513 13.9841 11.2 13.9841 9.9951 13.9841ZM26.5156 13.9975C26.2612 15.3631 26.0738 16.7152 25.7391 18.0272C25.391 19.3392 24.8823 20.6111 24.4539 21.8963C27.5197 20.8788 30.0901 17.2373 30.0098 13.9975C28.8451 13.9975 27.6937 13.9975 26.5156 13.9975Z" fill="#6C3D9E"/>
<path d="M20.0091 12.1904L20.973 14.1317L23.115 14.4396L21.562 15.9524L21.9235 18.0944L20.0091 17.077L18.0946 18.0944L18.4561 15.9524L16.9165 14.4396L19.0585 14.1317L20.0091 12.1904Z" fill="#6C3D9E"/>
</svg>
