<svg width="40" height="41" viewBox="0 0 40 41" fill="none" xmlns="http://www.w3.org/2000/svg">
<path d="M8 17.3886C8.03614 16.2922 8.44579 15.7019 9.16868 15.2922C11.4699 13.979 13.759 12.6537 16.0482 11.3404C17.4337 10.5452 18.4458 10.8103 19.253 12.2199C20.8193 14.9308 22.3856 17.6416 23.9518 20.3525C24.3856 21.0995 24.8193 21.8464 25.241 22.5934C25.9759 23.8705 25.6506 25.0272 24.3976 25.7501C22.1567 27.0392 19.8916 28.2802 17.6868 29.6537C16.4097 30.4489 15.0964 30.0995 14.3615 28.7742C12.4458 25.3404 10.4578 21.9549 8.50603 18.5332C8.27711 18.0994 8.10843 17.6296 8 17.3886ZM17.1446 12.0512C17.0723 12.0753 16.8434 12.1476 16.6386 12.2561C14.3494 13.5693 12.0482 14.8946 9.77109 16.2199C9.06024 16.6296 8.93976 17.0754 9.3494 17.7741C11.3735 21.2802 13.3976 24.7862 15.4217 28.2922C15.8193 28.9669 16.3133 29.1356 16.988 28.7501C19.3374 27.4127 21.6747 26.0513 24.0121 24.6898C24.6145 24.3284 24.7109 23.8826 24.3615 23.2561C24.0723 22.726 23.7591 22.2079 23.4579 21.6898C21.747 18.726 20.0241 15.75 18.3133 12.7862C18.0844 12.4006 17.8434 12.0271 17.1446 12.0512Z" fill="#6C3D9E"/>
<path d="M20.3493 29.618C20.9517 29.1722 21.5782 28.9071 22.3734 28.9192C24.8192 28.9674 27.265 28.9433 29.7108 28.9312C30.5903 28.9312 30.9035 28.63 30.9035 27.7385C30.9035 23.7023 30.9035 19.6782 30.9035 15.6421C30.9035 14.7505 30.6023 14.4493 29.7108 14.4493C27.4577 14.4493 25.2168 14.4493 22.9638 14.4493C21.9156 14.4493 21.8312 14.389 21.4818 13.2686C21.6505 13.2686 21.8071 13.2686 21.9638 13.2686C24.518 13.2686 27.0602 13.2686 29.6144 13.2686C31.1927 13.2686 31.9999 14.0758 31.9999 15.63C31.9999 19.6662 31.9999 23.6903 31.9999 27.7264C31.9999 29.2927 31.1927 30.0999 29.6264 30.0999C26.9999 30.0999 24.3734 30.112 21.7469 30.0879C21.265 30.0879 20.7951 29.9071 20.3252 29.8108C20.3252 29.7626 20.3372 29.6903 20.3493 29.618Z" fill="#6C3D9E"/>
<path d="M17.6868 22.027C17.6024 22.268 17.5542 22.4367 17.494 22.6053C17.1205 23.6656 16.1566 24.2319 15.1446 24.0029C14.1084 23.774 13.3253 22.7981 13.5181 21.7379C13.7952 20.2439 14.1928 18.774 14.5904 17.3041C14.6386 17.1355 15.0482 16.9306 15.2289 16.9788C16.6265 17.3282 18.0121 17.7017 19.3735 18.1475C20.4458 18.4969 21 19.6897 20.6988 20.7138C20.3856 21.7861 19.3494 22.3644 18.1928 22.1234C18.0482 22.1114 17.8916 22.0752 17.6868 22.027ZM15.506 18.1957C15.4337 18.4728 15.3614 18.6897 15.3133 18.8945C15.0843 19.8222 14.8193 20.7499 14.6265 21.6897C14.506 22.2439 14.8675 22.762 15.3855 22.8945C15.8434 23.015 16.2771 22.7258 16.4699 22.1716C16.5542 21.9066 16.6024 21.6294 16.6747 21.3523C16.8193 20.774 17.0482 20.6415 17.6265 20.7861C17.9157 20.8584 18.2048 20.9668 18.494 21.015C19.1566 21.1114 19.5783 20.8704 19.6747 20.3764C19.7831 19.8704 19.4699 19.3523 18.9036 19.1837C17.7952 18.8463 16.6867 18.5331 15.506 18.1957Z" fill="#6C3D9E"/>
<path d="M26.7106 16.509C26.8431 16.3885 26.9395 16.3042 27.048 16.2198C27.6745 15.7138 28.4576 15.7138 28.9998 16.2319C29.5419 16.75 29.6624 17.6415 29.1564 18.2198C28.4456 19.0271 27.6504 19.7741 26.8672 20.521C26.7829 20.6054 26.4456 20.5813 26.3612 20.4849C25.6383 19.762 24.9275 19.015 24.2648 18.2439C23.7467 17.6295 23.8311 16.7018 24.3974 16.1837C24.9877 15.6415 25.8311 15.6777 26.4456 16.2439C26.5178 16.3283 26.6022 16.4126 26.7106 16.509ZM26.6383 19.6536C26.7829 19.509 26.9034 19.4126 27.0118 19.2921C27.4937 18.8102 27.9998 18.3403 28.4576 17.8343C28.7347 17.5331 28.6986 17.0873 28.4335 16.8222C28.1925 16.5813 27.819 16.5933 27.5058 16.8584C27.3492 16.9909 27.2287 17.1476 27.0841 17.2801C26.7829 17.5813 26.5901 17.5813 26.2889 17.2801C26.1323 17.1355 25.9998 16.9548 25.8431 16.8222C25.4817 16.521 25.1323 16.509 24.8913 16.7741C24.6383 17.0512 24.6383 17.4728 24.9275 17.7861C25.4696 18.4126 26.0359 19.015 26.6383 19.6536Z" fill="#6C3D9E"/>
<path d="M17.7833 24.8587C17.5664 24.6659 17.3254 24.5575 17.2773 24.3888C17.2291 24.2201 17.2773 23.8828 17.3977 23.8105C18.0604 23.3768 18.7592 22.9912 19.47 22.6298C19.5785 22.5695 19.8797 22.7021 19.952 22.8225C20.0483 22.9792 20.0965 23.3527 20.0122 23.4129C19.3014 23.9069 18.5664 24.3527 17.7833 24.8587Z" fill="#6C3D9E"/>
</svg>
