<svg width="40" height="40" viewBox="0 0 40 40" fill="none" xmlns="http://www.w3.org/2000/svg">
<path d="M8.00033 19.985C7.97016 14.0115 12.5861 8.00779 19.9775 7.9927C27.3539 7.97762 32.015 13.9662 32 20.0151C32 26.0037 27.3992 31.9923 20.0228 32.0074C12.6313 32.0376 7.95507 26.0339 8.00033 19.985ZM19.9926 29.79C20.415 29.79 20.8524 29.8051 21.2748 29.79C21.9234 29.7749 22.3005 29.5034 22.4061 28.7793C22.5721 27.8139 22.8587 26.8786 23.1 25.9283C23.3716 24.8422 23.7185 24.631 24.8046 24.7366C25.8303 24.8422 26.8561 24.8875 27.8819 24.9931C28.3193 25.0383 28.621 24.9176 28.7568 24.4953C29.0735 23.5148 29.4054 22.5494 29.7222 21.5689C29.873 21.1163 29.7071 20.8297 29.2998 20.5884C28.3495 20.0302 27.4293 19.4268 26.4941 18.8235C25.7097 18.3257 25.589 17.9787 25.9359 17.1189C26.3432 16.0931 26.7505 15.0674 27.203 14.0567C27.3991 13.6042 27.3539 13.2874 26.9768 13.0159C26.132 12.3974 25.2722 11.794 24.4124 11.1756C24.0654 10.9342 23.7939 10.9945 23.4772 11.2661C22.6324 12.0203 21.7575 12.7293 20.8826 13.4533C20.1284 14.0869 19.8719 14.0869 19.1177 13.4684C18.2428 12.7444 17.383 12.0203 16.5231 11.2812C16.2214 11.0096 15.9499 10.904 15.603 11.1605C14.7281 11.794 13.8532 12.4125 12.9782 13.0461C12.6162 13.3176 12.6011 13.6193 12.7822 14.0266C13.2347 15.0372 13.642 16.063 14.0493 17.0887C14.3962 17.9486 14.2755 18.2955 13.5062 18.7933C12.6011 19.3816 11.6961 19.9699 10.7608 20.5129C10.3083 20.7845 10.082 21.0711 10.263 21.599C10.5798 22.5494 10.8966 23.4997 11.2134 24.45C11.3642 24.9176 11.6961 25.0082 12.1486 24.978C13.2045 24.8724 14.2454 24.8121 15.3013 24.7215C16.2214 24.631 16.5986 24.8724 16.8399 25.7624C17.0209 26.4412 17.1869 27.12 17.3528 27.8139C17.8657 29.8201 17.8657 29.8201 19.9926 29.79Z" fill="#6C3D9E"/>
<path d="M20.0228 23.0171C17.8808 22.9869 17.9713 23.3339 17.1567 20.9505C16.4025 18.718 16.4779 18.8537 18.2277 17.5866C20.1585 16.1838 19.8568 16.1988 21.8028 17.6017C23.5375 18.8688 23.5375 18.8688 22.8436 20.9053C22.8285 20.9354 22.8285 20.9505 22.8134 20.9807C22.0743 23.3339 22.1045 23.002 20.0228 23.0171Z" fill="#6C3D9E"/>
</svg>
