<svg width="40" height="41" viewBox="0 0 40 41" fill="none" xmlns="http://www.w3.org/2000/svg">
<path d="M8.05273 20.515C8.05273 13.9068 13.4445 8.48501 20.0227 8.50003C26.5708 8.51505 31.9475 13.9068 31.9475 20.485C31.9475 27.0932 26.5558 32.515 19.9776 32.5C13.4144 32.485 8.05273 27.0932 8.05273 20.515ZM20.0076 10.7228C15.1266 10.5576 10.1554 14.7028 10.1554 20.5C10.1704 25.8617 14.5408 30.1871 19.8575 30.2922C24.8437 30.3973 29.8149 26.2822 29.8149 20.515C29.8299 15.1083 25.4444 10.7228 20.0076 10.7228Z" fill="#6C3D9E"/>
<path d="M26.3157 17.887C26.3007 21.3864 23.4171 24.27 19.9628 24.24C16.4785 24.2099 13.6249 21.2963 13.67 17.827C13.715 14.3426 16.5385 11.5191 19.9928 11.5191C23.4622 11.5041 26.3307 14.4027 26.3157 17.887ZM21.8852 16.6555C22.516 15.3489 22.3658 14.2075 21.5097 13.5016C20.6687 12.7957 19.4071 12.7807 18.536 13.4565C17.6349 14.1474 17.4847 15.3188 18.1005 16.6405C17.0642 18.1574 17.0942 19.6743 18.1756 20.6204C19.1969 21.5216 20.894 21.4915 21.8702 20.5604C22.9065 19.5992 22.9215 18.0523 21.8852 16.6555Z" fill="#6C3D9E"/>
<path d="M20.0077 15.9197C20.4971 15.9197 20.8938 15.5229 20.8938 15.0336C20.8938 14.5442 20.4971 14.1475 20.0077 14.1475C19.5183 14.1475 19.1216 14.5442 19.1216 15.0336C19.1216 15.5229 19.5183 15.9197 20.0077 15.9197Z" fill="#6C3D9E"/>
<path d="M20.0079 20.0349C20.7213 20.0349 21.2995 19.4566 21.2995 18.7433C21.2995 18.0299 20.7213 17.4517 20.0079 17.4517C19.2946 17.4517 18.7163 18.0299 18.7163 18.7433C18.7163 19.4566 19.2946 20.0349 20.0079 20.0349Z" fill="#6C3D9E"/>
</svg>
