<svg width="40" height="41" viewBox="0 0 40 41" fill="none" xmlns="http://www.w3.org/2000/svg">
<path d="M10.4157 26.5752C10.0301 26.4547 9.68072 26.3944 9.37952 26.2499C8.51205 25.8282 8.01807 25.1173 8.01807 24.1535C7.99398 21.7198 7.99398 19.2981 8.01807 16.8644C8.03012 15.7198 8.76506 14.8644 9.88553 14.5873C10.0422 14.5511 10.1988 14.503 10.4157 14.4427C10.4157 14.0933 10.4157 13.7439 10.4157 13.3825C10.4397 11.9367 11.4156 10.8885 12.8614 10.8765C16.018 10.8524 19.1626 10.8524 22.3192 10.8765C23.765 10.8885 24.7409 11.9367 24.765 13.3825C24.765 13.7198 24.765 14.0572 24.765 14.4186C24.9698 14.4788 25.1384 14.5391 25.3071 14.5752C26.4276 14.8523 27.1625 15.7078 27.1625 16.8644C27.1866 19.274 27.1746 21.6836 27.1625 24.0932C27.1505 25.274 26.4276 26.1294 25.271 26.4185C25.1143 26.4547 24.9577 26.5029 24.777 26.5631C24.777 27.1173 24.777 27.6836 24.777 28.3462C25.4156 28.3462 26.0902 28.3101 26.7529 28.3583C29.1264 28.5029 29.4517 27.8041 29.3914 25.6957C29.3312 23.6716 29.3914 21.6354 29.3673 19.6114C29.3673 19.3342 29.2107 19.0089 29.0179 18.8041C28.3312 18.0571 28.3071 16.9367 29.0059 16.2499C29.6685 15.5873 30.7649 15.5752 31.4517 16.2258C32.1625 16.8885 32.1986 18.0812 31.4637 18.768C31.1625 19.0571 31.0902 19.3342 31.0902 19.7077C31.1023 21.9728 31.1023 24.2499 31.0902 26.5149C31.0902 28.78 29.7167 30.1414 27.4396 30.1414C22.7168 30.1414 18.006 30.1414 13.2831 30.1414C11.3193 30.1414 10.4036 29.2378 10.4036 27.274C10.4157 27.045 10.4157 26.8282 10.4157 26.5752ZM17.5843 24.7318C19.9337 24.7318 22.283 24.7318 24.6324 24.7318C25.283 24.7318 25.4637 24.5511 25.4637 23.9246C25.4758 21.6595 25.4758 19.3824 25.4637 17.1174C25.4637 16.4427 25.283 16.274 24.5963 16.274C19.9216 16.274 15.2469 16.274 10.5602 16.274C9.87349 16.274 9.69276 16.4427 9.69276 17.1174C9.69276 19.3704 9.69276 21.6113 9.69276 23.8643C9.69276 24.5752 9.86144 24.7318 10.5964 24.7318C12.9337 24.7318 15.259 24.7318 17.5843 24.7318ZM23.0541 14.4668C23.0541 14.021 23.0662 13.6475 23.0541 13.274C23.03 12.8764 22.8132 12.6596 22.3915 12.6596C19.1867 12.6596 15.9819 12.6475 12.765 12.6837C12.5482 12.6837 12.1988 12.9728 12.1506 13.1777C12.0542 13.5873 12.1265 14.0331 12.1265 14.4788C15.7891 14.4668 19.3795 14.4668 23.0541 14.4668ZM23.018 26.5631C19.3674 26.5631 15.753 26.5631 12.1024 26.5631C12.1024 26.8282 12.1024 27.045 12.1024 27.274C12.1024 28.2499 12.2108 28.3462 13.1626 28.3462C15.9337 28.3462 18.6927 28.3462 21.4638 28.3462C22.8975 28.3462 23.1867 28.6474 23.018 26.5631Z" fill="#6C3D9E"/>
<path d="M17.5482 19.2743C17.1868 19.2743 16.9217 19.3105 16.6687 19.2623C16.1748 19.19 15.8374 18.9129 15.8374 18.3948C15.8374 17.8647 16.1627 17.5635 16.6567 17.5274C17.3796 17.4792 18.1024 17.4792 18.8253 17.5274C19.4157 17.5635 19.7771 18.0816 19.5844 18.6478C19.1145 20.0816 18.6085 21.4912 18.0783 22.9008C17.9097 23.3345 17.5482 23.6237 17.0181 23.443C16.5362 23.2743 16.3073 22.7924 16.488 22.2623C16.7531 21.4791 17.0422 20.7201 17.3193 19.937C17.3916 19.7442 17.4519 19.5635 17.5482 19.2743Z" fill="#6C3D9E"/>
<path d="M13.0539 19.2747C12.6684 19.2747 12.4154 19.2988 12.1624 19.2626C11.6684 19.1903 11.3431 18.9132 11.3311 18.3951C11.3311 17.8771 11.6564 17.5518 12.1503 17.5156C12.8732 17.4674 13.5961 17.4674 14.319 17.5156C14.9334 17.5518 15.2828 18.0939 15.078 18.6963C14.6081 20.0819 14.1142 21.4554 13.5961 22.8289C13.3913 23.359 12.9335 23.5999 12.5118 23.4313C12.0058 23.2385 11.813 22.7807 11.9937 22.1903C12.1503 21.7084 12.331 21.2506 12.4997 20.7686C12.6684 20.3108 12.8491 19.853 13.0539 19.2747Z" fill="#6C3D9E"/>
<path d="M22.0786 19.2866C21.7413 19.2866 21.4883 19.3107 21.2353 19.2866C20.6931 19.2384 20.3437 18.8649 20.3558 18.3951C20.3558 17.9252 20.7172 17.5517 21.2594 17.5276C21.9461 17.4915 22.6208 17.4915 23.3076 17.5276C23.9582 17.5637 24.3196 18.1059 24.1148 18.7204C23.6449 20.1059 23.1509 21.4794 22.6329 22.8529C22.428 23.383 21.9582 23.6119 21.5485 23.4432C21.0666 23.2504 20.8497 22.8047 21.0305 22.2505C21.3437 21.2866 21.7052 20.3228 22.0786 19.2866Z" fill="#6C3D9E"/>
</svg>
