<svg width="24" height="25" viewBox="0 0 24 25" fill="none" xmlns="http://www.w3.org/2000/svg">
<path d="M0.0527344 12.515C0.0527344 5.90677 5.44445 0.485012 12.0227 0.500031C18.5708 0.51505 23.9475 5.90678 23.9475 12.485C23.9475 19.0932 18.5558 24.515 11.9776 24.5C5.41442 24.485 0.0527344 19.0932 0.0527344 12.515ZM12.0076 2.72281C7.12655 2.5576 2.15536 6.70277 2.15536 12.5C2.17038 17.8617 6.54082 22.1871 11.8575 22.2922C16.8437 22.3973 21.8149 18.2822 21.8149 12.515C21.8299 7.10827 17.4444 2.72281 12.0076 2.72281Z" fill="#6C3D9E"/>
<path d="M18.3157 9.88704C18.3007 13.3864 15.4171 16.27 11.9628 16.24C8.47847 16.2099 5.6249 13.2963 5.66996 9.82697C5.71502 6.34262 8.53853 3.5191 11.9928 3.5191C15.4622 3.50408 18.3307 6.40269 18.3157 9.88704ZM13.8852 8.65551C14.516 7.34888 14.3658 6.20746 13.5097 5.50158C12.6687 4.7957 11.4071 4.78067 10.536 5.45651C9.63491 6.14737 9.48472 7.31884 10.1005 8.64048C9.06419 10.1574 9.09423 11.6743 10.1756 12.6204C11.1969 13.5216 12.894 13.4915 13.8702 12.5604C14.9065 11.5992 14.9215 10.0523 13.8852 8.65551Z" fill="#6C3D9E"/>
<path d="M12.0077 7.91967C12.4971 7.91967 12.8938 7.52294 12.8938 7.03356C12.8938 6.54418 12.4971 6.14746 12.0077 6.14746C11.5183 6.14746 11.1216 6.54418 11.1216 7.03356C11.1216 7.52294 11.5183 7.91967 12.0077 7.91967Z" fill="#6C3D9E"/>
<path d="M12.0079 12.0349C12.7213 12.0349 13.2995 11.4566 13.2995 10.7433C13.2995 10.0299 12.7213 9.45166 12.0079 9.45166C11.2946 9.45166 10.7163 10.0299 10.7163 10.7433C10.7163 11.4566 11.2946 12.0349 12.0079 12.0349Z" fill="#6C3D9E"/>
</svg>
