<svg width="24" height="21" viewBox="0 0 24 21" fill="none" xmlns="http://www.w3.org/2000/svg">
<path d="M2.41565 16.5752C2.03011 16.4547 1.68072 16.3944 1.37952 16.2499C0.512051 15.8282 0.0180722 15.1173 0.0180722 14.1535C-0.00602406 11.7198 -0.00602406 9.2981 0.0180722 6.86438C0.0301203 5.71981 0.765055 4.86439 1.88553 4.58728C2.04216 4.55114 2.19878 4.50295 2.41565 4.44271C2.41565 4.09331 2.41565 3.74391 2.41565 3.38247C2.43975 1.9367 3.41564 0.888519 4.86142 0.876471C8.01802 0.852374 11.1626 0.852374 14.3192 0.876471C15.765 0.888519 16.7409 1.9367 16.765 3.38247C16.765 3.71982 16.765 4.05716 16.765 4.41861C16.9698 4.47885 17.1384 4.53909 17.3071 4.57524C18.4276 4.85234 19.1625 5.70776 19.1625 6.86438C19.1866 9.274 19.1746 11.6836 19.1625 14.0932C19.1505 15.274 18.4276 16.1294 17.271 16.4185C17.1143 16.4547 16.9577 16.5029 16.777 16.5631C16.777 17.1173 16.777 17.6836 16.777 18.3462C17.4156 18.3462 18.0902 18.3101 18.7529 18.3583C21.1264 18.5029 21.4517 17.8041 21.3914 15.6957C21.3312 13.6716 21.3914 11.6354 21.3673 9.61135C21.3673 9.33425 21.2107 9.00894 21.0179 8.80412C20.3312 8.05714 20.3071 6.93667 21.0059 6.24993C21.6685 5.58728 22.7649 5.57522 23.4517 6.22582C24.1625 6.88847 24.1986 8.08124 23.4637 8.76799C23.1625 9.05714 23.0902 9.33424 23.0902 9.70773C23.1023 11.9728 23.1023 14.2499 23.0902 16.5149C23.0902 18.78 21.7167 20.1414 19.4396 20.1414C14.7168 20.1414 10.006 20.1414 5.2831 20.1414C3.31926 20.1414 2.4036 19.2378 2.4036 17.274C2.41565 17.045 2.41565 16.8282 2.41565 16.5752ZM9.58428 14.7318C11.9337 14.7318 14.283 14.7318 16.6324 14.7318C17.283 14.7318 17.4637 14.5511 17.4637 13.9246C17.4758 11.6595 17.4758 9.38243 17.4637 7.11739C17.4637 6.44269 17.283 6.27402 16.5963 6.27402C11.9216 6.27402 7.24695 6.27402 2.56023 6.27402C1.87349 6.27402 1.69276 6.44269 1.69276 7.11739C1.69276 9.37038 1.69276 11.6113 1.69276 13.8643C1.69276 14.5752 1.86144 14.7318 2.59637 14.7318C4.93371 14.7318 7.25899 14.7318 9.58428 14.7318ZM15.0541 4.4668C15.0541 4.02102 15.0662 3.64753 15.0541 3.27403C15.03 2.87645 14.8132 2.65958 14.3915 2.65958C11.1867 2.65958 7.98188 2.64754 4.76503 2.68369C4.54817 2.68369 4.19877 2.97284 4.15058 3.17766C4.0542 3.58729 4.12648 4.03307 4.12648 4.47885C7.78911 4.4668 11.3795 4.4668 15.0541 4.4668ZM15.018 16.5631C11.3674 16.5631 7.75297 16.5631 4.10239 16.5631C4.10239 16.8282 4.10239 17.045 4.10239 17.274C4.10239 18.2499 4.21082 18.3462 5.16262 18.3462C7.93369 18.3462 10.6927 18.3462 13.4638 18.3462C14.8975 18.3462 15.1867 18.6474 15.018 16.5631Z" fill="#6C3D9E"/>
<path d="M9.54824 9.27433C9.18679 9.27433 8.92174 9.31048 8.66873 9.26229C8.17475 9.19 7.8374 8.91288 7.8374 8.39481C7.8374 7.8647 8.1627 7.5635 8.65667 7.52736C9.37956 7.47916 10.1024 7.47916 10.8253 7.52736C11.4157 7.5635 11.7771 8.08157 11.5844 8.64784C11.1145 10.0816 10.6085 11.4912 10.0783 12.9008C9.90968 13.3345 9.54823 13.6237 9.01812 13.443C8.53619 13.2743 8.30728 12.7924 8.488 12.2623C8.75306 11.4791 9.04221 10.7201 9.31932 9.93698C9.39161 9.74421 9.45185 9.56349 9.54824 9.27433Z" fill="#6C3D9E"/>
<path d="M5.05394 9.27466C4.6684 9.27466 4.41539 9.29876 4.16238 9.26261C3.6684 9.19032 3.3431 8.91321 3.33105 8.39514C3.33105 7.87707 3.65636 7.55178 4.15033 7.51564C4.87322 7.46744 5.59611 7.46744 6.31899 7.51564C6.93345 7.55178 7.28284 8.09394 7.07802 8.69634C6.60815 10.0819 6.11418 11.4554 5.59611 12.8289C5.39129 13.359 4.93346 13.5999 4.51178 13.4313C4.00576 13.2385 3.81298 12.7807 3.9937 12.1903C4.15033 11.7084 4.33105 11.2506 4.49972 10.7686C4.6684 10.3108 4.84912 9.85297 5.05394 9.27466Z" fill="#6C3D9E"/>
<path d="M14.0786 9.28662C13.7413 9.28662 13.4883 9.31071 13.2353 9.28662C12.6931 9.23843 12.3437 8.86493 12.3558 8.39505C12.3558 7.92518 12.7172 7.55169 13.2594 7.5276C13.9461 7.49145 14.6208 7.49145 15.3076 7.5276C15.9582 7.56374 16.3196 8.10591 16.1148 8.72036C15.6449 10.1059 15.1509 11.4794 14.6329 12.8529C14.428 13.383 13.9582 13.6119 13.5485 13.4432C13.0666 13.2504 12.8497 12.8047 13.0305 12.2505C13.3437 11.2866 13.7052 10.3228 14.0786 9.28662Z" fill="#6C3D9E"/>
</svg>
