<svg width="24" height="24" viewBox="0 0 24 24" fill="none" xmlns="http://www.w3.org/2000/svg">
<rect width="24" height="24" rx="12" fill="white" fill-opacity="0.3"/>
<path d="M11.9998 12.0832C12.322 12.0832 12.5832 11.822 12.5832 11.4998C12.5832 11.1777 12.322 10.9165 11.9998 10.9165C11.6777 10.9165 11.4165 11.1777 11.4165 11.4998C11.4165 11.822 11.6777 12.0832 11.9998 12.0832Z" stroke="white" stroke-width="1.35964" stroke-linecap="round" stroke-linejoin="round"/>
<path d="M11.9998 8.00016C12.322 8.00016 12.5832 7.739 12.5832 7.41683C12.5832 7.09466 12.322 6.8335 11.9998 6.8335C11.6777 6.8335 11.4165 7.09466 11.4165 7.41683C11.4165 7.739 11.6777 8.00016 11.9998 8.00016Z" stroke="white" stroke-width="1.35964" stroke-linecap="round" stroke-linejoin="round"/>
<path d="M11.9998 16.1667C12.322 16.1667 12.5832 15.9055 12.5832 15.5833C12.5832 15.2612 12.322 15 11.9998 15C11.6777 15 11.4165 15.2612 11.4165 15.5833C11.4165 15.9055 11.6777 16.1667 11.9998 16.1667Z" stroke="white" stroke-width="1.35964" stroke-linecap="round" stroke-linejoin="round"/>
</svg>
