<svg width="24" height="24" viewBox="0 0 24 24" fill="none" xmlns="http://www.w3.org/2000/svg">
<path d="M18 20V18.5C18 17.7044 17.6839 16.9413 17.1213 16.3787C16.5587 15.8161 15.7956 15.5 15 15.5H9C8.20435 15.5 7.44129 15.8161 6.87868 16.3787C6.31607 16.9413 6 17.7044 6 18.5V20" stroke="white" stroke-opacity="0.7" stroke-width="2" stroke-linecap="round" stroke-linejoin="round"/>
<path d="M12 12.5C13.6569 12.5 15 11.1569 15 9.5C15 7.84315 13.6569 6.5 12 6.5C10.3431 6.5 9 7.84315 9 9.5C9 11.1569 10.3431 12.5 12 12.5Z" stroke="white" stroke-opacity="0.7" stroke-width="2" stroke-linecap="round" stroke-linejoin="round"/>
<path d="M19.7778 3H4.22222C2.99492 3 2 3.89543 2 5V19C2 20.1046 2.99492 21 4.22222 21H19.7778C21.0051 21 22 20.1046 22 19V5C22 3.89543 21.0051 3 19.7778 3Z" stroke="white" stroke-opacity="0.7" stroke-width="2" stroke-linecap="round" stroke-linejoin="round"/>
</svg>
