<svg width="24" height="22" viewBox="0 0 24 22" fill="none" xmlns="http://www.w3.org/2000/svg">
<path d="M5.40898 2.97596C5.40898 2.74836 5.40898 2.6011 5.40898 2.45384C5.42236 1.11506 6.17208 0.325186 7.52424 0.311799C10.5097 0.298411 13.5086 0.298411 16.494 0.311799C17.8462 0.325186 18.5959 1.11506 18.6093 2.45384C18.6093 2.6011 18.6093 2.76176 18.6093 2.98935C19.9079 2.98935 21.1797 2.98935 22.4516 2.98935C23.7636 2.98935 24.0581 3.29727 23.9912 4.62265C23.7636 10.1384 20.4836 14.0476 14.8473 15.5471C12.9597 16.0424 12.9597 16.0424 12.9597 17.997C12.9597 18.5459 12.9597 19.0948 12.9597 19.724C13.8031 19.724 14.5796 19.724 15.3561 19.724C15.6506 19.724 15.9317 19.7106 16.2263 19.724C16.8823 19.7642 17.2839 20.1391 17.2973 20.688C17.3107 21.2368 16.8957 21.6251 16.2531 21.692C16.1593 21.7054 16.079 21.692 15.9853 21.692C13.3345 21.692 10.6704 21.692 8.01959 21.692C7.91249 21.692 7.792 21.692 7.68489 21.6786C7.08245 21.5983 6.70759 21.2101 6.70759 20.688C6.72098 20.1658 7.10922 19.7508 7.71167 19.724C8.5551 19.6839 9.41191 19.7106 10.2553 19.7106C10.4963 19.7106 10.7373 19.7106 11.0452 19.7106C11.0452 18.5459 11.0854 17.4615 11.0051 16.3771C10.9917 16.1629 10.5499 15.8817 10.2553 15.8148C8.48816 15.3998 6.78792 14.8375 5.23494 13.8736C1.60686 11.6111 0.0538748 8.25073 0.000323837 4.07375C-0.0130639 3.32404 0.388573 2.98934 1.21861 2.97596C2.38335 2.96257 3.53469 2.97596 4.69943 2.97596C4.94041 2.97596 5.15461 2.97596 5.40898 2.97596ZM7.29665 2.31996C7.37697 3.35082 7.44391 4.31473 7.53762 5.26526C7.79199 7.67506 8.26057 10.0313 9.51902 12.1332C9.94742 12.8561 10.6168 13.4586 11.246 14.0476C11.7012 14.476 12.3037 14.476 12.7722 14.0476C13.3613 13.5121 14.0039 12.9766 14.4055 12.3072C16.2397 9.24142 16.5208 5.81416 16.7082 2.30657C13.5487 2.31996 10.4695 2.31996 7.29665 2.31996ZM1.9951 4.98412C2.08882 8.45154 5.18138 12.7089 7.6715 12.8293C6.39967 10.366 5.87755 7.70183 5.56963 4.98412C4.35135 4.98412 3.2 4.98412 1.9951 4.98412ZM18.5156 4.99751C18.2612 6.36306 18.0738 7.71522 17.7391 9.02722C17.391 10.3392 16.8823 11.6111 16.4539 12.8963C19.5197 11.8788 22.0901 8.23735 22.0098 4.99751C20.8451 4.99751 19.6937 4.99751 18.5156 4.99751Z" fill="#6C3D9E"/>
<path d="M12.0091 3.19043L12.973 5.13165L15.115 5.43957L13.562 6.95238L13.9235 9.09442L12.0091 8.07696L10.0946 9.09442L10.4561 6.95238L8.9165 5.43957L11.0585 5.13165L12.0091 3.19043Z" fill="#6C3D9E"/>
</svg>
