<svg width="24" height="21" viewBox="0 0 24 21" fill="none" xmlns="http://www.w3.org/2000/svg">
<path d="M0 7.3886C0.0361446 6.29222 0.445785 5.70186 1.16868 5.29222C3.46989 3.97896 5.75904 2.65365 8.04821 1.3404C9.43375 0.545216 10.4458 0.810283 11.253 2.21992C12.8193 4.93077 14.3856 7.64162 15.9518 10.3525C16.3856 11.0995 16.8193 11.8464 17.241 12.5934C17.9759 13.8705 17.6506 15.0272 16.3976 15.7501C14.1567 17.0392 11.8916 18.2802 9.68677 19.6537C8.40966 20.4489 7.0964 20.0995 6.36145 18.7742C4.44579 15.3404 2.45784 11.9549 0.506026 8.53318C0.27711 8.09945 0.108434 7.62957 0 7.3886ZM9.1446 2.05125C9.07231 2.07534 8.84339 2.14763 8.63857 2.25607C6.34941 3.56932 4.0482 4.89462 1.77109 6.21992C1.06024 6.62956 0.939762 7.07535 1.3494 7.77415C3.3735 11.2802 5.3976 14.7862 7.4217 18.2922C7.81929 18.9669 8.31327 19.1356 8.98797 18.7501C11.3374 17.4127 13.6747 16.0513 16.0121 14.6898C16.6145 14.3284 16.7109 13.8826 16.3615 13.2561C16.0723 12.726 15.7591 12.2079 15.4579 11.6898C13.747 8.72596 12.0241 5.75004 10.3133 2.78618C10.0844 2.40064 9.84339 2.02715 9.1446 2.05125Z" fill="#6C3D9E"/>
<path d="M12.3493 19.618C12.9517 19.1722 13.5782 18.9071 14.3734 18.9192C16.8192 18.9674 19.265 18.9433 21.7108 18.9312C22.5903 18.9312 22.9035 18.63 22.9035 17.7385C22.9035 13.7023 22.9035 9.67821 22.9035 5.64205C22.9035 4.75049 22.6023 4.44929 21.7108 4.44929C19.4577 4.44929 17.2168 4.44929 14.9638 4.44929C13.9156 4.44929 13.8312 4.38904 13.4818 3.26855C13.6505 3.26855 13.8071 3.26855 13.9638 3.26855C16.518 3.26855 19.0602 3.26855 21.6144 3.26855C23.1927 3.26855 23.9999 4.07579 23.9999 5.63001C23.9999 9.66616 23.9999 13.6903 23.9999 17.7264C23.9999 19.2927 23.1927 20.0999 21.6264 20.0999C18.9999 20.0999 16.3734 20.112 13.7469 20.0879C13.265 20.0879 12.7951 19.9071 12.3252 19.8108C12.3252 19.7626 12.3372 19.6903 12.3493 19.618Z" fill="#6C3D9E"/>
<path d="M9.68675 12.027C9.60241 12.268 9.55422 12.4367 9.49398 12.6053C9.12048 13.6656 8.15662 14.2319 7.14457 14.0029C6.10843 13.774 5.32529 12.7981 5.51807 11.7379C5.79517 10.2439 6.19277 8.77402 6.59036 7.30413C6.63855 7.13546 7.04819 6.93064 7.22891 6.97884C8.62651 7.32824 10.0121 7.70172 11.3735 8.14751C12.4458 8.49691 13 9.68969 12.6988 10.7138C12.3856 11.7861 11.3494 12.3644 10.1928 12.1234C10.0482 12.1114 9.89157 12.0752 9.68675 12.027ZM7.50602 8.1957C7.43373 8.47281 7.36145 8.68968 7.31325 8.8945C7.08434 9.82221 6.81927 10.7499 6.6265 11.6897C6.50602 12.2439 6.86747 12.762 7.38554 12.8945C7.84337 13.015 8.27711 12.7258 8.46988 12.1716C8.55422 11.9066 8.60241 11.6294 8.6747 11.3523C8.81928 10.774 9.0482 10.6415 9.62651 10.7861C9.91567 10.8584 10.2048 10.9668 10.494 11.015C11.1566 11.1114 11.5783 10.8704 11.6747 10.3764C11.7831 9.8704 11.4699 9.35233 10.9036 9.18366C9.79518 8.84631 8.68675 8.53305 7.50602 8.1957Z" fill="#6C3D9E"/>
<path d="M18.7106 6.50899C18.8431 6.38851 18.9395 6.30417 19.048 6.21983C19.6745 5.71381 20.4576 5.71381 20.9998 6.23189C21.5419 6.74996 21.6624 7.64153 21.1564 8.21984C20.4456 9.02707 19.6504 9.77406 18.8672 10.521C18.7829 10.6054 18.4456 10.5813 18.3612 10.4849C17.6383 9.76201 16.9275 9.01503 16.2648 8.24394C15.7467 7.62948 15.8311 6.70176 16.3974 6.18369C16.9877 5.64152 17.8311 5.67767 18.4456 6.24393C18.5178 6.32827 18.6022 6.41261 18.7106 6.50899ZM18.6383 9.65358C18.7829 9.509 18.9034 9.41261 19.0118 9.29213C19.4937 8.8102 19.9998 8.34032 20.4576 7.8343C20.7347 7.53309 20.6986 7.08731 20.4335 6.82225C20.1925 6.58128 19.819 6.59333 19.5058 6.8584C19.3492 6.99093 19.2287 7.14755 19.0841 7.28008C18.7829 7.58129 18.5901 7.58129 18.2889 7.28008C18.1323 7.1355 17.9998 6.95478 17.8431 6.82225C17.4817 6.52104 17.1323 6.509 16.8913 6.77406C16.6383 7.05117 16.6383 7.47285 16.9275 7.7861C17.4696 8.41261 18.0359 9.01502 18.6383 9.65358Z" fill="#6C3D9E"/>
<path d="M9.78328 14.8587C9.56642 14.6659 9.32545 14.5575 9.27726 14.3888C9.22906 14.2201 9.27726 13.8828 9.39774 13.8105C10.0604 13.3768 10.7592 12.9912 11.47 12.6298C11.5785 12.5695 11.8797 12.7021 11.952 12.8225C12.0483 12.9792 12.0965 13.3527 12.0122 13.4129C11.3014 13.9069 10.5664 14.3527 9.78328 14.8587Z" fill="#6C3D9E"/>
</svg>
