<svg width="24" height="26" viewBox="0 0 24 26" fill="none" xmlns="http://www.w3.org/2000/svg">
<path d="M0.000325528 12.985C-0.0298437 7.01147 4.58605 1.00779 11.9775 0.992704C19.3539 0.97762 24.015 6.96621 24 13.0151C24 19.0037 19.3992 24.9923 12.0228 25.0074C4.63131 25.0376 -0.0449283 19.0339 0.000325528 12.985ZM11.9926 22.79C12.415 22.79 12.8524 22.8051 13.2748 22.79C13.9234 22.7749 14.3005 22.5034 14.4061 21.7793C14.5721 20.8139 14.8587 19.8786 15.1 18.9283C15.3716 17.8422 15.7185 17.631 16.8046 17.7366C17.8303 17.8422 18.8561 17.8875 19.8819 17.9931C20.3193 18.0383 20.621 17.9176 20.7568 17.4953C21.0735 16.5148 21.4054 15.5494 21.7222 14.5689C21.873 14.1163 21.7071 13.8297 21.2998 13.5884C20.3495 13.0302 19.4293 12.4268 18.4941 11.8235C17.7097 11.3257 17.589 10.9787 17.9359 10.1189C18.3432 9.09315 18.7505 8.06739 19.203 7.05672C19.3991 6.60418 19.3539 6.28741 18.9768 6.01588C18.132 5.39741 17.2722 4.79403 16.4124 4.17556C16.0654 3.93421 15.7939 3.99454 15.4772 4.26606C14.6324 5.02029 13.7575 5.72927 12.8826 6.45333C12.1284 7.08689 11.8719 7.08689 11.1177 6.46842C10.2428 5.74436 9.38296 5.0203 8.52313 4.28115C8.22144 4.00963 7.94992 3.90404 7.60298 4.16048C6.72807 4.79403 5.85316 5.4125 4.97825 6.04606C4.61622 6.31758 4.60114 6.61927 4.78216 7.02656C5.2347 8.03722 5.64199 9.06298 6.04927 10.0887C6.39622 10.9486 6.27553 11.2955 5.50621 11.7933C4.60113 12.3816 3.69606 12.9699 2.76082 13.5129C2.30828 13.7845 2.082 14.0711 2.26302 14.599C2.57979 15.5494 2.89658 16.4997 3.21336 17.45C3.3642 17.9176 3.69606 18.0082 4.14859 17.978C5.20452 17.8724 6.24536 17.8121 7.30128 17.7215C8.22145 17.631 8.59857 17.8724 8.83992 18.7624C9.02094 19.4412 9.18686 20.12 9.35279 20.8139C9.86566 22.8201 9.86566 22.8201 11.9926 22.79Z" fill="#6C3D9E"/>
<path d="M12.0228 16.0171C9.88077 15.9869 9.97127 16.3339 9.1567 13.9505C8.40247 11.718 8.47789 11.8537 10.2277 10.5866C12.1585 9.18376 11.8568 9.19885 13.8028 10.6017C15.5375 11.8688 15.5375 11.8688 14.8436 13.9053C14.8285 13.9354 14.8285 13.9505 14.8134 13.9807C14.0743 16.3339 14.1045 16.002 12.0228 16.0171Z" fill="#6C3D9E"/>
</svg>
